<?xml version="1.0" encoding="utf-8"?>
<!-- Generator: Adobe Illustrator 27.0.0, SVG Export Plug-In . SVG Version: 6.00 Build 0)  -->
<svg version="1.1" id="Layer_1" xmlns="http://www.w3.org/2000/svg" xmlns:xlink="http://www.w3.org/1999/xlink" x="0px" y="0px"
	 viewBox="0 0 500 500" style="enable-background:new 0 0 500 500;" xml:space="preserve">
<style type="text/css">
	.st0{fill:#FE6500;}
	.st1{display:none;}
	.st2{display:inline;}
	.st3{fill:url(#SVGID_1_);}
	.st4{fill:url(#SVGID_00000056426776760726352030000005348312234144199064_);stroke:#000000;stroke-width:2;stroke-miterlimit:10;}
	.st5{fill:#FE6500;stroke:#000000;stroke-width:2;stroke-miterlimit:10;}
</style>
<g>
	<g>
		<path class="st0" d="M245.64,278.66c-3.06,0-6.03-1.08-8.35-3.04L93.57,154.6c-3.05-2.56-4.71-6.33-4.56-10.32l0.01-0.14l0-0.05
			c0.04-3.71,1.68-7.21,4.5-9.62L236.08,12.12c2.35-2.01,5.35-3.12,8.44-3.12c3.78,0,7.35,1.63,9.81,4.48
			c2.02,2.33,3.13,5.31,3.13,8.41c0,3.76-1.63,7.32-4.48,9.77L121.57,144.41l132.43,111.52c2.64,2.22,4.25,5.33,4.54,8.76
			c0.29,3.43-0.78,6.78-3.01,9.41C253.07,277,249.47,278.66,245.64,278.66z"/>
	</g>
	<g>
		<path d="M244.52,10L244.52,10c3.48,0,6.78,1.51,9.05,4.14c1.86,2.14,2.88,4.9,2.88,7.75c0,3.47-1.51,6.75-4.13,9.01L121.81,142.88
			l-1.78,1.53l1.8,1.52l2.76,2.33L253.35,256.7c2.43,2.04,3.92,4.91,4.18,8.07c0.27,3.17-0.72,6.25-2.78,8.68
			c-2.26,2.68-5.58,4.21-9.12,4.21c-2.83,0-5.57-1-7.71-2.81L94.21,153.83c-2.81-2.36-4.34-5.83-4.2-9.51l0.01-0.29L90.01,144
			c0.06-3.38,1.57-6.57,4.15-8.77L236.73,12.88C238.9,11.02,241.67,10,244.52,10 M244.52,8c-3.22,0-6.46,1.11-9.09,3.36
			L92.86,133.71c-3.16,2.7-4.81,6.52-4.85,10.37c-0.01,0.05-0.01,0.11,0,0.16c-0.16,4.13,1.51,8.27,4.91,11.12l143.71,121.02
			c2.62,2.21,5.81,3.28,9,3.28c3.96,0,7.9-1.67,10.65-4.92c4.96-5.86,4.23-14.63-1.65-19.57L125.87,146.73l-2.76-2.33L253.63,32.42
			c3.2-2.75,4.83-6.63,4.83-10.53c0-3.21-1.1-6.44-3.37-9.06C252.33,9.64,248.44,8,244.52,8L244.52,8z"/>
	</g>
</g>
<g class="st1">
	<g class="st2">
		<g>
			<linearGradient id="SVGID_1_" gradientUnits="userSpaceOnUse" x1="458.0544" y1="82.8463" x2="462.1755" y2="428.8376">
				<stop  offset="0" style="stop-color:#FFFFFF"/>
				<stop  offset="0.1504" style="stop-color:#C7D4D3"/>
				<stop  offset="0.3092" style="stop-color:#93ACAA"/>
				<stop  offset="0.4655" style="stop-color:#678B88"/>
				<stop  offset="0.6157" style="stop-color:#46716D"/>
				<stop  offset="0.7582" style="stop-color:#2E5F5A"/>
				<stop  offset="0.8898" style="stop-color:#1F544F"/>
				<stop  offset="1" style="stop-color:#1A504B"/>
			</linearGradient>
			<path class="st3" d="M524.8,184.12c-0.22-2.66-1.47-5.07-3.51-6.8l-63.05-53.29l-45.2-38.21c-1.81-1.52-4.1-2.36-6.45-2.36
				c-2.96,0-5.74,1.29-7.65,3.54c-1.51,1.8-2.29,3.98-2.35,6.17c-0.06,0.43-0.09,0.88-0.09,1.33v325c0,5.51,4.49,10,10,10
				s10-4.49,10-10v-114l87.15,63.04c1.72,1.24,3.74,1.89,5.86,1.89c3.2,0,6.23-1.54,8.11-4.14c1.56-2.16,2.19-4.8,1.77-7.44
				c-0.43-2.64-1.85-4.95-4.01-6.52l-96.96-70.12l102.89-88.62c2.28-1.98,3.46-4.76,3.47-7.56c0-0.01,0-0.01,0-0.02
				C524.85,185.39,524.85,184.76,524.8,184.12z M416.5,257.47V114.94l83.52,70.6L416.5,257.47z"/>
		</g>
	</g>
</g>
<linearGradient id="SVGID_00000073680654548879832270000017420792105856782727_" gradientUnits="userSpaceOnUse" x1="309.1505" y1="7.8338" x2="317.7007" y2="470.3368">
	<stop  offset="0.145" style="stop-color:#FFFFFF"/>
	<stop  offset="0.2736" style="stop-color:#C7D4D3"/>
	<stop  offset="0.4094" style="stop-color:#93ACAA"/>
	<stop  offset="0.543" style="stop-color:#678B88"/>
	<stop  offset="0.6714" style="stop-color:#46716D"/>
	<stop  offset="0.7932" style="stop-color:#2E5F5A"/>
	<stop  offset="0.9057" style="stop-color:#1F544F"/>
	<stop  offset="1" style="stop-color:#1A504B"/>
</linearGradient>
<path style="fill:url(#SVGID_00000073680654548879832270000017420792105856782727_);stroke:#000000;stroke-width:2;stroke-miterlimit:10;" d="
	M229.16,266.15v191.68c0,3.84,1.56,7.31,4.07,9.83c2.51,2.51,5.98,4.06,9.81,4.06c7.67,0,13.89-6.22,13.89-13.89V300.04
	l112.63,87.34c2.53,1.96,5.53,2.91,8.5,2.91c4.14,0,8.24-1.85,10.98-5.38c4.71-6.06,3.6-14.77-2.46-19.48l-12-9.3l-112.05-86.91
	l132.6-114.22c3.15-2.7,4.79-6.52,4.83-10.37c0.01-0.05,0.01-0.11,0-0.16c0.16-4.13-1.51-8.27-4.89-11.12L251.89,12.34
	c-2.61-2.21-5.79-3.28-8.97-3.28c-3.94,0-7.87,1.67-10.61,4.92c-2.62,3.11-3.65,7.02-3.16,10.77v211.67 M229.16,236.42v29.73
	 M256.93,235.75v-14.91 M256.93,220.83V52.97l105.32,89.02l2.75,2.33l-108.07,93.07v-1.64"/>
<path class="st5" d="M233.99,480.13l-18.21,10.51c-6.64,3.83-15.14,1.56-18.97-5.08l0,0c-3.83-6.64-1.56-15.14,5.08-18.97
	l172.63-99.67c6.64-3.83,15.14-1.56,18.97,5.08v0c3.83,6.64,1.56,15.14-5.08,18.97L233.99,480.13z"/>
</svg>
