<svg xmlns="http://www.w3.org/2000/svg" width="50" height="38.889" viewBox="0 0 50 38.889">
  <path id="_icon__Images_" data-name="🦆 icon _Images_" d="M41.667,33.333v1.389A4.167,4.167,0,0,1,37.5,38.889H4.167A4.167,4.167,0,0,1,0,34.722V12.5A4.167,4.167,0,0,1,4.167,8.333H5.556V26.389A6.952,6.952,0,0,0,12.5,33.333ZM50,26.389V4.167A4.166,4.166,0,0,0,45.833,0H12.5A4.167,4.167,0,0,0,8.333,4.167V26.389A4.167,4.167,0,0,0,12.5,30.556H45.833A4.166,4.166,0,0,0,50,26.389ZM22.222,8.333a4.167,4.167,0,1,1-4.167-4.167A4.167,4.167,0,0,1,22.222,8.333Zm-8.333,12.5,4.819-4.819a1.042,1.042,0,0,1,1.473,0l3.43,3.43L35.375,7.681a1.042,1.042,0,0,1,1.473,0l7.6,7.6V25H13.889Z" fill="#f9a166"/>
</svg>
