<svg width="528" height="528" viewBox="0 0 528 528" fill="none" xmlns="http://www.w3.org/2000/svg">
<path d="M157.713 1.62168C157.713 1.62168 169.682 0.421075 177.257 0.129707C184.833 -0.161661 196.51 0.129497 196.51 0.129497V59.9318C196.51 59.9318 183.182 58.3926 166.889 59.9318C155.544 61.0035 138.774 67.7371 138.774 67.7371C92.5157 85.5286 59.6876 130.409 59.6876 182.865C59.6876 242.897 99.0584 292.943 155.417 303.962C155.417 303.962 172.273 306.693 183.182 306.257C195.526 305.763 213.842 302.47 213.842 302.47L155.417 365.486C66.0007 353.434 0 275.725 0 182.98C0 90.5791 68.6407 14.0183 157.713 1.62168ZM515.15 514.935C502.294 527.791 488.635 529.053 482.321 526.987C476.123 524.921 451.215 504.145 412.992 476.023C374.769 447.786 374.425 435.045 363.635 410.941C352.845 386.951 328.741 362.043 297.634 350.794L286.5 333.921C258.149 353.319 225.665 364.798 193.181 366.864C193.181 366.864 181.669 367.133 174.295 366.864C166.921 366.595 155.417 365.486 155.417 365.486L180.576 338.35L213.842 302.47C267.217 288.811 306.702 240.487 306.702 182.865C306.702 120.308 262.625 65.671 196.51 59.9318V0.129497C292.01 5.98347 367.308 85.6434 367.308 182.98C367.308 221.547 354.452 257.245 334.021 286.745L350.779 297.764C362.028 328.87 386.936 352.86 410.926 363.65C434.916 374.439 447.886 374.784 476.123 413.007C504.36 451.115 525.136 476.023 527.202 482.221C529.268 488.42 528.005 502.079 515.15 514.935ZM503.786 494.388C503.786 489.338 499.654 485.206 494.603 485.206C489.553 485.206 485.421 489.338 485.421 494.388C485.421 499.439 489.553 503.571 494.603 503.571C499.654 503.571 503.786 499.439 503.786 494.388Z" fill="white"/>
</svg>
