<svg xmlns="http://www.w3.org/2000/svg" xmlns:xlink="http://www.w3.org/1999/xlink" width="41.524" height="50" viewBox="0 0 41.524 50">
  <defs>
    <linearGradient id="linear-gradient" x1="0.5" x2="0.5" y2="1" gradientUnits="objectBoundingBox">
      <stop offset="0" stop-color="#fff"/>
      <stop offset="1" stop-color="#c2d9d9"/>
    </linearGradient>
    <filter id="Icon_awesome-suitcase-rolling" x="0" y="0" width="41.524" height="50" filterUnits="userSpaceOnUse">
      <feOffset dy="3" input="SourceAlpha"/>
      <feGaussianBlur stdDeviation="3" result="blur"/>
      <feFlood flood-opacity="0.612"/>
      <feComposite operator="in" in2="blur"/>
      <feComposite in="SourceGraphic"/>
    </filter>
    <filter id="Icon_awesome-suitcase-rolling-2" x="0" y="0" width="41.524" height="50" filterUnits="userSpaceOnUse">
      <feOffset dy="1" input="SourceAlpha"/>
      <feGaussianBlur stdDeviation="1" result="blur-2"/>
      <feFlood flood-opacity="0.702" result="color"/>
      <feComposite operator="out" in="SourceGraphic" in2="blur-2"/>
      <feComposite operator="in" in="color"/>
      <feComposite operator="in" in2="SourceGraphic"/>
    </filter>
  </defs>
  <g data-type="innerShadowGroup">
    <g transform="matrix(1, 0, 0, 1, 0, 0)" filter="url(#Icon_awesome-suitcase-rolling)">
      <path id="Icon_awesome-suitcase-rolling-3" data-name="Icon awesome-suitcase-rolling" d="M20.584,10H2.941A2.971,2.971,0,0,0,0,13V27a2.971,2.971,0,0,0,2.941,3h.98v1a.99.99,0,0,0,.98,1h1.96a.99.99,0,0,0,.98-1V30h7.841v1a.99.99,0,0,0,.98,1h1.96a.99.99,0,0,0,.98-1V30h.98a2.971,2.971,0,0,0,2.941-3V13A2.971,2.971,0,0,0,20.584,10ZM19.6,23.5a.5.5,0,0,1-.49.5H4.411a.5.5,0,0,1-.49-.5v-1a.5.5,0,0,1,.49-.5h14.7a.5.5,0,0,1,.49.5Zm0-6a.5.5,0,0,1-.49.5H4.411a.5.5,0,0,1-.49-.5v-1a.5.5,0,0,1,.49-.5h14.7a.5.5,0,0,1,.49.5ZM8.822,3H14.7V8h2.941V3A2.971,2.971,0,0,0,14.7,0H8.822A2.971,2.971,0,0,0,5.881,3V8H8.822Z" transform="translate(9 6)" fill="url(#linear-gradient)"/>
    </g>
    <g transform="matrix(1, 0, 0, 1, 0, 0)" filter="url(#Icon_awesome-suitcase-rolling-2)">
      <path id="Icon_awesome-suitcase-rolling-4" data-name="Icon awesome-suitcase-rolling" d="M20.584,10H2.941A2.971,2.971,0,0,0,0,13V27a2.971,2.971,0,0,0,2.941,3h.98v1a.99.99,0,0,0,.98,1h1.96a.99.99,0,0,0,.98-1V30h7.841v1a.99.99,0,0,0,.98,1h1.96a.99.99,0,0,0,.98-1V30h.98a2.971,2.971,0,0,0,2.941-3V13A2.971,2.971,0,0,0,20.584,10ZM19.6,23.5a.5.5,0,0,1-.49.5H4.411a.5.5,0,0,1-.49-.5v-1a.5.5,0,0,1,.49-.5h14.7a.5.5,0,0,1,.49.5Zm0-6a.5.5,0,0,1-.49.5H4.411a.5.5,0,0,1-.49-.5v-1a.5.5,0,0,1,.49-.5h14.7a.5.5,0,0,1,.49.5ZM8.822,3H14.7V8h2.941V3A2.971,2.971,0,0,0,14.7,0H8.822A2.971,2.971,0,0,0,5.881,3V8H8.822Z" transform="translate(9 6)" fill="#fff"/>
    </g>
  </g>
</svg>
