<svg xmlns="http://www.w3.org/2000/svg" xmlns:xlink="http://www.w3.org/1999/xlink" width="46" height="50" viewBox="0 0 46 50">
  <defs>
    <linearGradient id="linear-gradient" x1="0.5" x2="0.5" y2="1" gradientUnits="objectBoundingBox">
      <stop offset="0" stop-color="#fff"/>
      <stop offset="1" stop-color="#c2d9d9"/>
    </linearGradient>
    <filter id="Icon_awesome-user" x="0" y="0" width="46" height="50" filterUnits="userSpaceOnUse">
      <feOffset dy="3" input="SourceAlpha"/>
      <feGaussianBlur stdDeviation="3" result="blur"/>
      <feFlood flood-opacity="0.612"/>
      <feComposite operator="in" in2="blur"/>
      <feComposite in="SourceGraphic"/>
    </filter>
    <filter id="Icon_awesome-user-2" x="0" y="0" width="46" height="50" filterUnits="userSpaceOnUse">
      <feOffset dy="1" input="SourceAlpha"/>
      <feGaussianBlur stdDeviation="1" result="blur-2"/>
      <feFlood flood-opacity="0.702" result="color"/>
      <feComposite operator="out" in="SourceGraphic" in2="blur-2"/>
      <feComposite operator="in" in="color"/>
      <feComposite operator="in" in2="SourceGraphic"/>
    </filter>
  </defs>
  <g data-type="innerShadowGroup">
    <g transform="matrix(1, 0, 0, 1, 0, 0)" filter="url(#Icon_awesome-user)">
      <path id="Icon_awesome-user-3" data-name="Icon awesome-user" d="M14,16A8,8,0,1,0,6,8,8,8,0,0,0,14,16Zm5.6,2H18.556a10.88,10.88,0,0,1-9.113,0H8.4A8.4,8.4,0,0,0,0,26.4V29a3,3,0,0,0,3,3H25a3,3,0,0,0,3-3V26.4A8.4,8.4,0,0,0,19.6,18Z" transform="translate(9 6)" fill="url(#linear-gradient)"/>
    </g>
    <g transform="matrix(1, 0, 0, 1, 0, 0)" filter="url(#Icon_awesome-user-2)">
      <path id="Icon_awesome-user-4" data-name="Icon awesome-user" d="M14,16A8,8,0,1,0,6,8,8,8,0,0,0,14,16Zm5.6,2H18.556a10.88,10.88,0,0,1-9.113,0H8.4A8.4,8.4,0,0,0,0,26.4V29a3,3,0,0,0,3,3H25a3,3,0,0,0,3-3V26.4A8.4,8.4,0,0,0,19.6,18Z" transform="translate(9 6)" fill="#fff"/>
    </g>
  </g>
</svg>
