<svg xmlns="http://www.w3.org/2000/svg" width="29.143" height="25.5" viewBox="0 0 29.143 25.5">
  <path id="_icon__Horizontal_Sliders_" data-name="🦆 icon _Horizontal Sliders_" d="M28.232,20.035H9.107v-.911a.913.913,0,0,0-.911-.911H6.375a.913.913,0,0,0-.911.911v.911H.911A.913.913,0,0,0,0,20.946v1.821a.913.913,0,0,0,.911.911H5.464v.911a.913.913,0,0,0,.911.911H8.2a.913.913,0,0,0,.911-.911v-.911H28.232a.913.913,0,0,0,.911-.911V20.946A.913.913,0,0,0,28.232,20.035Zm0-9.107H23.678v-.911a.913.913,0,0,0-.911-.911H20.946a.913.913,0,0,0-.911.911v.911H.911A.913.913,0,0,0,0,11.839v1.821a.913.913,0,0,0,.911.911H20.035v.911a.913.913,0,0,0,.911.911h1.821a.913.913,0,0,0,.911-.911v-.911h4.553a.913.913,0,0,0,.911-.911V11.839A.913.913,0,0,0,28.232,10.928Zm0-9.107H16.393V.911A.913.913,0,0,0,15.482,0H13.661a.913.913,0,0,0-.911.911v.911H.911A.913.913,0,0,0,0,2.732V4.554a.913.913,0,0,0,.911.911H12.75v.911a.913.913,0,0,0,.911.911h1.821a.913.913,0,0,0,.911-.911V5.464H28.232a.913.913,0,0,0,.911-.911V2.732A.913.913,0,0,0,28.232,1.821Z" fill="#f9a166"/>
</svg>
