<svg xmlns="http://www.w3.org/2000/svg" xmlns:xlink="http://www.w3.org/1999/xlink" width="49" height="49" viewBox="0 0 49 49">
  <defs>
    <linearGradient id="linear-gradient" x1="0.5" x2="0.5" y2="1" gradientUnits="objectBoundingBox">
      <stop offset="0" stop-color="#fff"/>
      <stop offset="1" stop-color="#c2d9d9"/>
    </linearGradient>
    <filter id="Icon_awesome-search" x="0" y="0" width="49" height="49" filterUnits="userSpaceOnUse">
      <feOffset dy="3" input="SourceAlpha"/>
      <feGaussianBlur stdDeviation="3" result="blur"/>
      <feFlood flood-opacity="0.612"/>
      <feComposite operator="in" in2="blur"/>
      <feComposite in="SourceGraphic"/>
    </filter>
    <filter id="Icon_awesome-search-2" x="0" y="0" width="49" height="49" filterUnits="userSpaceOnUse">
      <feOffset dy="1" input="SourceAlpha"/>
      <feGaussianBlur stdDeviation="1" result="blur-2"/>
      <feFlood flood-opacity="0.702" result="color"/>
      <feComposite operator="out" in="SourceGraphic" in2="blur-2"/>
      <feComposite operator="in" in="color"/>
      <feComposite operator="in" in2="SourceGraphic"/>
    </filter>
  </defs>
  <g data-type="innerShadowGroup">
    <g transform="matrix(1, 0, 0, 1, 0, 0)" filter="url(#Icon_awesome-search)">
      <path id="Icon_awesome-search-3" data-name="Icon awesome-search" d="M30.578,26.8l-6.037-6.036a1.452,1.452,0,0,0-1.029-.424h-.987a12.589,12.589,0,1,0-2.18,2.179v.987a1.452,1.452,0,0,0,.424,1.029l6.037,6.036a1.447,1.447,0,0,0,2.053,0l1.714-1.713A1.46,1.46,0,0,0,30.578,26.8Zm-17.984-6.46a7.749,7.749,0,1,1,7.751-7.749A7.745,7.745,0,0,1,12.595,20.342Z" transform="translate(9 6)" fill="url(#linear-gradient)"/>
    </g>
    <g transform="matrix(1, 0, 0, 1, 0, 0)" filter="url(#Icon_awesome-search-2)">
      <path id="Icon_awesome-search-4" data-name="Icon awesome-search" d="M30.578,26.8l-6.037-6.036a1.452,1.452,0,0,0-1.029-.424h-.987a12.589,12.589,0,1,0-2.18,2.179v.987a1.452,1.452,0,0,0,.424,1.029l6.037,6.036a1.447,1.447,0,0,0,2.053,0l1.714-1.713A1.46,1.46,0,0,0,30.578,26.8Zm-17.984-6.46a7.749,7.749,0,1,1,7.751-7.749A7.745,7.745,0,0,1,12.595,20.342Z" transform="translate(9 6)" fill="#fff"/>
    </g>
  </g>
</svg>
